<?xml version="1.0" encoding="utf-8"?>
<!-- Generator: Adobe Illustrator 26.0.3, SVG Export Plug-In . SVG Version: 6.00 Build 0)  -->
<svg version="1.1" id="Capa_1" xmlns="http://www.w3.org/2000/svg" xmlns:xlink="http://www.w3.org/1999/xlink" x="0px" y="0px"
	 viewBox="0 0 242.4 242.4" style="enable-background:new 0 0 242.4 242.4;" xml:space="preserve">
<style type="text/css">
	.st0{fill:#313131;}
	.st1{fill:#7D3D3A;}
	.st2{fill:#EFD29C;}
	.st3{fill:#3D324B;}
	.st4{fill:#EAC77B;}
	.st5{opacity:0.2;fill:#554A5E;enable-background:new    ;}
	.st6{fill:#E9C371;}
	.st7{fill:#EFD39C;}
	.st8{opacity:0.4;fill:#E9C371;enable-background:new    ;}
	.st9{opacity:0.4;fill:#69AEA7;enable-background:new    ;}
	.st10{opacity:0.4;fill:#905149;enable-background:new    ;}
	.st11{opacity:0.17;fill:#905149;enable-background:new    ;}
	.st12{opacity:0.17;fill:#554A5E;enable-background:new    ;}
	.st13{fill:#9EC9D0;}
	.st14{opacity:0.8;fill:#ECE8D8;enable-background:new    ;}
	.st15{opacity:0.3;fill:#EAC77B;enable-background:new    ;}
	.st16{opacity:0.15;fill:#783933;enable-background:new    ;}
	.st17{fill:#ECCD8D;}
	.st18{fill:#582B28;}
	.st19{font-family:'Break-Regular';}
	.st20{font-size:37.7794px;}
</style>
<path class="st0" d="M74.4,39.2c1.4-0.9-1.6-14.4-3.5-13.5s-2.5,14.9-0.4,14.9S72.7,40.3,74.4,39.2z"/>
<path class="st0" d="M123.8,36.3c1.6-0.7,0.8-14.4-1.3-13.9c-2.1,0.5-4.9,14.3-2.8,14.6C121.1,37.4,122.6,37.2,123.8,36.3z"/>
<path class="st0" d="M170.5,41.1c1.6-0.6,1.9-14.3-0.2-14c-2.1,0.3-6,13.9-3.8,14.4C167.7,42,169.2,41.9,170.5,41.1z"/>
<path class="st1" d="M64.8,36.7c-2,2,3.9,58.2,6.3,58.7c2.4,0.5,16.3-3.1,15.7-4.4c-0.5-1.3-4.2-57.2-7.4-57.5
	C76.4,33.3,67,34.6,64.8,36.7z"/>
<path class="st2" d="M82.9,49.7c-1.1-9.1-2.3-16.1-3.4-16.2c-3.1-0.3-12.6,1-14.7,3.1c-0.4,1.3-0.5,2.7-0.4,4
	C70.1,44.6,76.6,46.9,82.9,49.7z"/>
<path class="st2" d="M85.5,75.2c-0.3-3.1-0.6-6.6-0.9-10.2c-6.5-3.8-13-7.6-19.3-11.6c0.3,3.5,0.6,7.4,1,11.2
	C72.5,68.4,79,71.7,85.5,75.2z"/>
<path class="st2" d="M176.5,37.8c2.1,1.9-1.2,58.4-3.5,59c-2.3,0.6-16.4-2.4-15.9-3.7c0.5-1.3,1.6-57.3,4.6-57.7
	S174.3,35.9,176.5,37.8z"/>
<path class="st3" d="M173.2,36.4c-3.8-0.9-7.7-1.3-11.6-1.1c-0.9,0.1-1.6,4.7-2.2,11.2C164,43.2,168.6,39.7,173.2,36.4z"/>
<path class="st3" d="M176.8,60.7c0.2-4.5,0.3-8.9,0.4-12.6c-6.3,5.2-12.4,10.5-18.8,15.6c-0.2,3.6-0.3,7.1-0.5,10.5
	C164.1,69.6,170.4,65.1,176.8,60.7z"/>
<path class="st4" d="M114.9,32.5c-2.2,1.8-1.8,59.9,0.5,60.7c2.3,0.8,16.5-1.3,16.1-2.6s1.6-57.3-1.6-57.9
	C126.7,32,117.1,30.6,114.9,32.5z"/>
<path class="st5" d="M131.6,56.5c0-3.7,0-7.4-0.2-10.6c-6,0.4-12-0.1-17.9-1.4c-0.1,3-0.2,6.5-0.2,10.1
	C119.4,56.1,125.5,56.8,131.6,56.5z"/>
<path class="st5" d="M131.5,73.3c0-2.4,0-5,0.1-7.7c-6.1-0.4-12.1-1.1-18.2-1.4c0,2.8,0,5.6,0.1,8.3
	C119.5,73.5,125.5,73.7,131.5,73.3z"/>
<path class="st6" d="M64.3,6.1c-1.8,0.9-8.4,27.7,7.2,23.6S67,4.9,64.3,6.1z"/>
<path class="st7" d="M74.2,23.7c0,2.9-2.4,5.3-5.3,5.4c-2.9,0-5.3-2.4-5.4-5.3c0-2.9,2.4-5.3,5.3-5.4c0,0,0,0,0,0
	C71.8,18.4,74.2,20.8,74.2,23.7z"/>
<path class="st8" d="M70.6,23.7c-5.3-3.9-5.8-11-4.3-17c-0.9-0.6-1.6-0.9-2-0.7c-1.8,0.9-8.4,27.7,7.2,23.6c3.1-0.8,4.7-2.3,5.5-4.1
	C74.6,25.8,72.4,25.1,70.6,23.7z"/>
<path class="st6" d="M121.7,1c-2.1,0.5-15.4,26.4,1.6,26.1S124.8,0.4,121.7,1z"/>
<path class="st7" d="M127.6,21.5c-0.7,3-3.7,4.9-6.8,4.2c-3-0.7-4.9-3.7-4.2-6.8c0.7-3,3.7-4.9,6.8-4.2c0,0,0,0,0,0
	C126.4,15.5,128.3,18.5,127.6,21.5C127.6,21.5,127.6,21.5,127.6,21.5z"/>
<path class="st8" d="M128.7,18.6c-5.8,0.4-9.9-2.9-12.4-7.4c-2.5,7.4-2.9,16.2,7,16c6.6-0.1,8.3-4.3,7.7-9.2
	C130.3,18.3,129.5,18.5,128.7,18.6z"/>
<path class="st6" d="M172.5,4.2c-2.2,0.1-19.9,24.5-2.5,26.9S175.7,4,172.5,4.2z"/>
<path class="st7" d="M175.2,26c-1.2,3-4.6,4.4-7.6,3.2s-4.4-4.6-3.2-7.6c1.2-3,4.6-4.4,7.6-3.2c0,0,0,0,0,0
	C175,19.7,176.4,23.1,175.2,26z"/>
<path class="st8" d="M177.5,16.1c-1.8,4-5.1,7.2-9.3,8.7c-1.8,0.7-3.6,1-5.5,1c0.7,2.6,2.9,4.6,7.3,5.2c10.3,1.4,10.4-8.3,8.1-16.4
	C177.9,15.1,177.7,15.6,177.5,16.1z"/>
<path class="st3" d="M40.7,75.3h163.7c1.7,0,3.1,1.4,3.1,3.1v58.2c0,1.7-1.4,3.1-3.1,3.1H40.7c-1.7,0-3.1-1.4-3.1-3.1V78.5
	C37.5,76.7,38.9,75.3,40.7,75.3z"/>
<path class="st9" d="M207.7,101.2c-0.8-8.6-1.6-17.2-2.3-25.8C183.1,72.3,73.1,64.7,39.6,76c-0.7,7.3-0.6,14.7-1.4,22
	c-0.4,3.1-0.8,6.5-1.2,9.7c0.3,0.1,0.5,0.1,0.8,0.1c7.6,0.3,10.8-16,17.6-15.7c6.8,0.3,5.3,16.8,16.8,16.8s7.6-15.7,20.7-15.7
	s8.9,14.7,17.6,14.7s10-14.7,17.8-14.7c7.9,0,7.6,14.7,16,14.7c8.4,0,6.8-14.7,14.7-14.7c7.9,0,5.8,15.7,15.7,15.7
	c9.9,0,13.6-15.7,19.6-15.7c6,0,8.1,14.7,13.2,14.7c0.2,0,0.3,0,0.5-0.1C208.1,105.6,207.9,103.4,207.7,101.2z"/>
<path class="st5" d="M142.4,131.4c-17.1-4.9-34.5-11.8-48.7-22.8c-7.1-5.6-15.1-14.1-18.9-23.5H40.7c-1.7,0-3.1,1.4-3.1,3.1v58.2
	c0,1.7,1.4,3.1,3.1,3.1h163.7c1.7,0,3.1-1.4,3.1-3.1v-10.7C185.7,138.4,163.4,137.4,142.4,131.4z"/>
<path class="st3" d="M17.1,139.9H228c1.7,0,3.1,1.4,3.1,3.1v61.4c0,1.7-1.4,3.1-3.1,3.1H17.1c-1.7,0-3.1-1.4-3.1-3.1V143
	C13.9,141.3,15.3,139.9,17.1,139.9z"/>
<path class="st10" d="M230.6,139c-4.6-1.9-12.9-3.1-28.1-3.1c-29,0.3-156.7-1.6-170.4,0.1c-10.7,1.3-17.6,1.6-20.5,5.7v0.9
	c1,4.1,1.6,8.4,1.9,12.6c0.1,1.3,0.2,2.5,0.2,3.7c0.3,2.2,0.5,4.5,0.5,6.8c1.4,1.8,3.5,2.9,5.8,3c8.1,0.3,6.8-16,13.1-16.2
	c6.3-0.1,9.2,16.2,16.8,16.2s7.9-16.2,14.7-16.2s8.2,16.2,18,16.2s7.5-16.2,15.3-16.2s8.8,16.1,16.1,16.1s9.4-16.1,16.1-16.1
	c6.7,0,7.6,15.3,15.3,15.3c7.8,0,9.4-14.3,14.3-14.3s5.7,13.6,13.6,13.6s5.7-14.7,14.7-14.7c9,0,7,14.8,14.8,14.8
	c7.8,0,6-14.8,12.8-14.8s7.6,14,13.6,14c0.5,0,1-0.1,1.4-0.3C229.9,157.2,230.4,148.1,230.6,139z"/>
<path class="st11" d="M166.4,146.3c1.8,1.9-13.6,28.7-17.7,29.3S163.8,143.7,166.4,146.3z"/>
<path class="st11" d="M43.6,141.6c1.8,1.9-13.6,28.7-17.7,29.3S41.1,138.9,43.6,141.6z"/>
<path class="st11" d="M48.3,180.9c1.8,1.9-13.6,28.7-17.7,29.3S45.8,178.3,48.3,180.9z"/>
<path class="st11" d="M122.3,141.6c1.8,1.9-13.6,28.7-17.7,29.3S119.8,138.9,122.3,141.6z"/>
<path class="st11" d="M131.8,176.2c1.8,1.9-13.6,28.7-17.7,29.3S129.2,173.6,131.8,176.2z"/>
<path class="st11" d="M83,147.8c1.8,1.9-13.6,28.7-17.7,29.3S80.4,145.2,83,147.8z"/>
<path class="st11" d="M92.4,184.1c1.8,1.9-13.6,28.7-17.7,29.3C70.6,213.9,89.9,181.4,92.4,184.1z"/>
<path class="st11" d="M180.6,169.9c1.8,1.9-13.6,28.7-17.7,29.3S178,167.3,180.6,169.9z"/>
<path class="st11" d="M215.2,147.8c1.8,1.9-13.6,28.7-17.7,29.3S212.6,145.2,215.2,147.8z"/>
<path class="st11" d="M224.6,182.5c1.8,1.9-13.6,28.7-17.7,29.3S222.1,179.9,224.6,182.5z"/>
<path class="st12" d="M138.2,184.4c-30.5-6.3-60.9-19.8-80.1-44.5h-41c-1.7,0-3.1,1.4-3.1,3.1v61.4c0,1.7,1.4,3.1,3.1,3.1H228
	c1.7,0,3.1-1.4,3.1-3.1V187C200.2,191.6,168.8,190.7,138.2,184.4z"/>
<path class="st13" d="M238.5,202.8H4.9c-2.1,0-4.8,2-3.8,7.1L3,220.7c0.9,4.2,1.7,7.4,3.8,7.4h5.7l1.4,7.6c0.8,3.8,1.6,6.4,3.4,6.4
	h210.4c1.9,0,2.5-2.3,3.4-6.4l1.4-7.6h4.1c2.1,0,2.7-2.8,3.7-7.4l1.9-10.7C243,205.6,240.5,202.8,238.5,202.8z"/>
<path class="st14" d="M143.5,229.5c-17.7-1.8-35.4-5.1-52.9-10.2c-12.1-3.2-23.9-8.8-35.3-16.5H5.5c-2.1,0-4.8,2-3.8,7.1l1.9,10.7
	c0.9,4.2,1.7,7.4,3.8,7.4h5.7l1.4,7.6c0.8,3.8,1.6,6.4,3.4,6.4h210.4c1.9,0,2.5-2.3,3.4-6.4l1.4-7.6h4.1c0.7,0.1,1.4-0.4,1.9-1.3
	C207.3,230.9,175.3,233,143.5,229.5z"/>
<path class="st4" d="M8.4,143c-0.9,9.8,1.8,22.3,10,22.6s6.8-16,13.1-16.2c6.3-0.1,9.2,16.2,16.8,16.2s7.9-16.2,14.7-16.2
	s8.2,16.2,18,16.2s7.5-16.2,15.3-16.2s8.8,16.1,16.1,16.1s9.4-16.1,16.1-16.1c6.7,0,7.6,15.3,15.3,15.3c7.8,0,9.4-14.3,14.3-14.3
	s5.7,13.6,13.6,13.6s5.7-14.7,14.7-14.7s7,14.8,14.8,14.8c7.8,0,6-14.8,12.8-14.8s7.6,14,13.6,14s9.4-17.3,7.6-21.7
	c-1.8-4.3-5.5-9.3-34.5-9c-29,0.3-156.7-1.6-170.4,0.1C16.7,134.5,9.2,134.6,8.4,143z"/>
<path class="st15" d="M89.9,146.7c-11.6-2.2-23-5.2-34.2-9.1c-4.2-1.4-8.2-3.2-12.1-5.3c-6.5,0.1-11.1,0.3-13.2,0.5
	c-13.7,1.7-21.2,1.7-22,10.1c-0.9,9.8,1.8,22.3,10,22.6s6.8-16,13.1-16.2c6.3-0.1,9.2,16.2,16.8,16.2s7.9-16.2,14.7-16.2
	s8.2,16.2,18,16.2s7.5-16.2,15.3-16.2s8.8,16.1,16.1,16.1c5.5,0,8.1-9.2,11.9-13.7C112.7,150.7,101.3,149,89.9,146.7z"/>
<path class="st15" d="M133.1,152.5c3.1,4.5,5.2,12.2,10.7,12.2s8-7.2,10.7-11.4C147.4,153.2,140.3,153,133.1,152.5z"/>
<path class="st15" d="M162.3,153.3h-0.6c2.4,4,4.5,10.7,10.1,10.7c5.6,0,6.1-7.1,9-11.4C174.7,153,168.5,153.3,162.3,153.3z"/>
<path class="st15" d="M235.5,144.5c-14.5,3.4-29.2,5.8-44,7.3c3.6,4.2,4,12.5,9.8,12.5c7.8,0,6-14.8,12.8-14.8s7.6,14,13.6,14
	c5.2,0,8.4-12.7,8.1-19.1L235.5,144.5z"/>
<path class="st16" d="M199.5,86.3c-14.2,2.8-28.7,3.6-43.2,2.4c-28.7-2-57.8-8.3-83.7-21c-16.8,1-30.6,3.1-38.2,6.6
	c-4.7,2.2-5.8,30.1,1.8,30.4C43.9,105,47,88.7,53.8,89c6.8,0.3,5.3,16.8,16.8,16.8S78.2,90,91.3,90s8.9,14.7,17.6,14.7
	s10-14.7,17.8-14.7s7.6,14.7,16,14.7c8.4,0,6.8-14.7,14.7-14.7c7.9,0,5.8,15.7,15.7,15.7c9.9,0,13.6-15.7,19.6-15.7
	s8.1,14.7,13.2,14.7c3.4,0,6.3-12.8,5.6-22.1C207.7,84.2,203.6,85.4,199.5,86.3z"/>
<path class="st2" d="M34.4,74.3c-4.7,2.2-5.8,30.1,1.8,30.4C43.8,105,47,88.7,53.8,89c6.8,0.3,5.3,16.8,16.8,16.8S78.2,90,91.3,90
	s8.9,14.7,17.6,14.7s10-14.7,17.8-14.7s7.6,14.7,16,14.7c8.4,0,6.8-14.7,14.7-14.7c7.9,0,5.8,15.7,15.7,15.7
	c9.9,0,13.6-15.7,19.6-15.7c6,0,8.1,14.7,13.2,14.7s9.1-29.1,1.4-31.8C199.9,70.3,64.8,59.9,34.4,74.3z"/>
<path class="st17" d="M207.5,136.5c-32.6-4.2-69.7,0-68.5,5.3C140.2,147.1,263.8,143.8,207.5,136.5z"/>
<path class="st1" d="M183.1,73.2c-13.5-1-4.7,10.7,8.4,11.3S208.1,75,183.1,73.2z"/>
<path class="st18" d="M43.5,87.3c0,1.5-1.3,2.8-2.8,2.8c-1.5,0-2.8-1.3-2.8-2.8s1.3-2.8,2.8-2.8l0,0C42.3,84.5,43.5,85.7,43.5,87.3z
	"/>
<path class="st18" d="M177.3,95.2c0,1.5-1.3,2.8-2.8,2.8c-1.5,0-2.8-1.3-2.8-2.8c0-1.5,1.3-2.8,2.8-2.8l0,0
	C176.1,92.4,177.3,93.6,177.3,95.2z"/>
<path class="st18" d="M114.4,92c0,1.5-1.3,2.8-2.8,2.8s-2.8-1.3-2.8-2.8s1.3-2.8,2.8-2.8l0,0C113.1,89.2,114.4,90.5,114.4,92z"/>
<path class="st18" d="M75,77.8c0,1.5-1.3,2.8-2.8,2.8c-1.5,0-2.8-1.3-2.8-2.8s1.3-2.8,2.8-2.8l0,0C73.8,75,75,76.3,75,77.8z"/>
<path class="st18" d="M144.3,77.8c0,1.5-1.3,2.8-2.8,2.8c-1.5,0-2.8-1.3-2.8-2.8s1.3-2.8,2.8-2.8l0,0C143,75,144.3,76.3,144.3,77.8z
	"/>
<path class="st18" d="M204.1,79.4c0,1.5-1.3,2.8-2.8,2.8c-1.5,0-2.8-1.3-2.8-2.8s1.3-2.8,2.8-2.8l0,0
	C202.9,76.6,204.1,77.9,204.1,79.4z"/>
<text transform="matrix(1 0 0 1 30.0337 230.2324)" class="st19 st20">Space Cake</text>
</svg>
